# xmcd CD database file
# 
# Track frame offsets:
# 	225
# 	11617
# 	27034
# 	44676
# 	58944
# 	77825
# 	91769
# 	107513
# 	120150
# 	134185
# 	150716
# 	170756
# 	184160
# 	200611
# 	217992
# 
# Disc length: 3172 seconds
# 
# Submitted via: Nero 5.5.9.9
# 
# Revision: 0
# Processed by: cddbd v1.4PL0 Copyright (c) Steve Scherf et al.
#
DISCID=cd0c610f
DTITLE=Schovanky - Panska jizda
DYEAR=1900
DGENRE=
TTITLE0=Kdyz smutek v dusi mas
TTITLE1=Blues letni noci
TTITLE2=Tvar za sklem
TTITLE3=Krasna jizda milencu
TTITLE4=Nejde verit dal
TTITLE5=Telefonni
TTITLE6=Sen
TTITLE7=Cervena reka
TTITLE8=Jak namalovat touhu
TTITLE9=Motyl
TTITLE10=Dlouha reka
TTITLE11=Ja se neztratim
TTITLE12=Zkousim psat
TTITLE13=Starej vuz
TTITLE14=Jen Buh nam dava zit
EXTD=
EXTT0=
EXTT1=
EXTT2=
EXTT3=
EXTT4=
EXTT5=
EXTT6=
EXTT7=
EXTT8=
EXTT9=
EXTT10=
EXTT11=
EXTT12=
EXTT13=
EXTT14=
PLAYORDER=
